HIERARCHY
ROOT Hips
{
	OFFSET -0.001795 -0.223333 0.028219
	CHANNELS 6 Xposition Yposition Zposition Zrotation Yrotation Xrotation 
	JOINT LeftUpLeg
	{
		OFFSET 0.069520 -0.091406 -0.006815
		CHANNELS 3 Zrotation Yrotation Xrotation
		JOINT LeftLeg
		{
			OFFSET 0.034277 -0.375199 -0.004496
			CHANNELS 3 Zrotation Yrotation Xrotation
			JOINT LeftFoot
			{
				OFFSET -0.013596 -0.397961 -0.043693
				CHANNELS 3 Zrotation Yrotation Xrotation
				JOINT LeftToe
				{
					OFFSET 0.026358 -0.055791 0.119288
					CHANNELS 3 Zrotation Yrotation Xrotation
					End Site
					{
						OFFSET 0.000000 0.000000 0.000000
					}
				}
			}
		}
	}
	JOINT RightUpLeg
	{
		OFFSET -0.067670 -0.090522 -0.004320
		CHANNELS 3 Zrotation Yrotation Xrotation
		JOINT RightLeg
		{
			OFFSET -0.038290 -0.382569 -0.008850
			CHANNELS 3 Zrotation Yrotation Xrotation
			JOINT RightFoot
			{
				OFFSET 0.015774 -0.398415 -0.042312
				CHANNELS 3 Zrotation Yrotation Xrotation
				JOINT RightToe
				{
					OFFSET -0.025372 -0.048144 0.123348
					CHANNELS 3 Zrotation Yrotation Xrotation
					End Site
					{
						OFFSET 0.000000 0.000000 0.000000
					}
				}
			}
		}
	}
	JOINT Spine
	{
		OFFSET -0.002533 0.108963 -0.026696
		CHANNELS 3 Zrotation Yrotation Xrotation
		JOINT Spine1
		{
			OFFSET 0.005487 0.135180 0.001092
			CHANNELS 3 Zrotation Yrotation Xrotation
			JOINT Spine2
			{
				OFFSET 0.001457 0.052922 0.025425
				CHANNELS 3 Zrotation Yrotation Xrotation
				JOINT Neck
				{
					OFFSET -0.002778 0.213870 -0.042857
					CHANNELS 3 Zrotation Yrotation Xrotation
					JOINT Head
					{
						OFFSET 0.005152 0.064970 0.051349
						CHANNELS 3 Zrotation Yrotation Xrotation
						End Site
						{
							OFFSET 0.000000 0.000000 0.000000
						}
					}
				}
				JOINT LeftShoulder
				{
					OFFSET 0.078845 0.121749 -0.034090
					CHANNELS 3 Zrotation Yrotation Xrotation
					JOINT LeftArm
					{
						OFFSET 0.090977 0.030469 -0.008868
						CHANNELS 3 Zrotation Yrotation Xrotation
						JOINT LeftForeArm
						{
							OFFSET 0.259612 -0.012772 -0.027456
							CHANNELS 3 Zrotation Yrotation Xrotation
							JOINT LeftHand
							{
								OFFSET 0.249234 0.008986 -0.001171
								CHANNELS 3 Zrotation Yrotation Xrotation
								End Site
								{
									OFFSET 0.000000 0.000000 0.000000
								}
							}
						}
					}
				}
				JOINT RightShoulder
				{
					OFFSET -0.081759 0.118833 -0.038615
					CHANNELS 3 Zrotation Yrotation Xrotation
					JOINT RightArm
					{
						OFFSET -0.096012 0.032551 -0.009143
						CHANNELS 3 Zrotation Yrotation Xrotation
						JOINT RightForeArm
						{
							OFFSET -0.253742 -0.013329 -0.021401
							CHANNELS 3 Zrotation Yrotation Xrotation
							JOINT RightHand
							{
								OFFSET -0.255298 0.007772 -0.005559
								CHANNELS 3 Zrotation Yrotation Xrotation
								End Site
								{
									OFFSET 0.000000 0.000000 0.000000
								}
							}
						}
					}
				}
			}
		}
	}
}
MOTION
Frames: 12
Frame Time: 0.050000
0.000000 0.896786 0.000000 1.568992 -3.953700 -10.090124 14.421750 0.081266 9.743291 -6.016609 1.045423 12.966355 6.139227 12.802400 -1.050780 0.000000 0.000000 0.000000 -9.663231 0.055462 12.197555 5.187949 -0.481490 14.794358 -7.302361 -16.080566 -9.530138 0.000000 0.000000 0.000000 8.226787 0.610529 -3.374634 -3.345517 1.414483 -15.834903 0.449174 4.367627 24.834036 5.775755 -1.716695 -23.298185 0.000000 0.000000 0.000000 -34.437526 -10.562824 4.243365 -42.706250 3.093762 -7.529290 -13.009705 -23.771554 3.730478 0.000000 0.000000 0.000000 36.002762 1.229823 -0.815359 43.606589 -4.255073 -7.681725 8.036293 18.222014 1.878753 0.000000 0.000000 0.000000 
0.000252 0.896594 -0.000130 0.088349 -5.237464 -10.271035 15.468310 0.129827 8.742132 -6.793601 1.359157 15.095450 6.954311 14.625070 -0.256162 0.000000 0.000000 0.000000 -7.919761 -0.099590 10.942595 4.119415 -0.153239 16.687692 -7.148444 -15.272368 -9.869842 0.000000 0.000000 0.000000 10.252980 0.678494 -2.847379 -4.168280 1.647714 -16.931802 1.478821 5.262121 26.337193 4.649316 -0.593809 -26.889200 0.000000 0.000000 0.000000 -30.174538 -12.259896 5.291516 -45.652768 0.344069 -7.219736 -14.466881 -22.006652 3.714589 0.000000 0.000000 0.000000 33.491472 1.960896 0.064018 45.640244 -2.394680 -7.544733 6.534861 16.478116 1.484861 0.000000 0.000000 0.000000 
0.000164 0.894056 -0.000389 0.387307 -4.183153 -10.495963 14.500268 0.142379 7.673309 -7.496778 1.545198 16.103224 5.111616 9.950471 -4.174020 0.000000 0.000000 0.000000 -7.150648 -0.218588 10.399666 3.254964 0.083703 18.732652 -7.418976 -15.851102 -12.330778 0.000000 0.000000 0.000000 9.354348 0.513220 -1.995929 -3.544630 1.474298 -16.669999 0.100155 4.351234 26.014058 6.019016 -1.413572 -26.940793 0.000000 0.000000 0.000000 -28.739686 -12.274323 5.355037 -46.077352 0.674419 -7.436909 -12.032409 -22.985006 3.390249 0.000000 0.000000 0.000000 34.735624 0.942917 -0.909539 45.639265 -2.121047 -7.396656 7.468828 15.778622 1.525963 0.000000 0.000000 0.000000 
0.000151 0.896439 -0.000414 0.131125 -2.715934 -10.173033 15.082297 0.024234 7.282913 -6.806686 1.270027 15.789220 4.816702 9.535305 -2.625611 0.000000 0.000000 0.000000 -6.631285 -0.328459 10.395949 2.369163 0.288845 19.728639 -7.022459 -15.549346 -10.078541 0.000000 0.000000 0.000000 9.074530 0.587199 -2.898592 -2.822435 1.279314 -16.867574 -0.039639 3.937928 26.738566 6.581543 -1.365016 -29.313611 0.000000 0.000000 0.000000 -27.077853 -13.161244 5.684857 -47.729165 0.317326 -7.589052 -12.122283 -22.655060 3.351802 0.000000 0.000000 0.000000 34.817060 1.081783 -0.532901 44.839482 -2.104411 -7.380651 8.829348 15.199967 1.614973 0.000000 0.000000 0.000000 
0.000245 0.897055 -0.000273 0.280162 -2.571590 -9.910458 14.261197 0.066863 6.513681 -6.978717 1.338504 16.541599 5.295126 10.426053 -3.283771 0.000000 0.000000 0.000000 -6.973733 -0.287533 10.169288 2.214171 0.321997 19.595565 -6.836779 -15.134890 -9.455508 0.000000 0.000000 0.000000 8.748818 0.590224 -3.132224 -2.884465 1.302932 -16.340009 -0.150413 3.941265 25.686904 7.070572 -1.646096 -28.923249 0.000000 0.000000 0.000000 -26.544689 -12.487409 5.160485 -47.448035 1.049810 -7.716799 -13.079118 -22.540445 3.509534 0.000000 0.000000 0.000000 34.759146 0.247457 -1.162700 45.258047 -2.437456 -7.479263 8.721358 14.470518 1.514396 0.000000 0.000000 0.000000 
0.000422 0.898331 0.000171 0.414215 -2.210037 -10.035821 13.635118 0.088915 5.855194 -7.161850 1.392092 17.123928 6.589926 13.369318 -2.450185 0.000000 0.000000 0.000000 -7.414717 -0.279201 10.936295 2.353332 0.273011 19.777396 -6.784174 -15.125015 -9.161107 0.000000 0.000000 0.000000 8.741730 0.682141 -3.923313 -3.003715 1.351770 -15.932687 0.012043 3.744066 26.135916 6.855338 -1.541618 -28.822351 0.000000 0.000000 0.000000 -25.987335 -13.069836 5.518543 -48.251015 1.073427 -7.890595 -12.081979 -22.693118 3.341449 0.000000 0.000000 0.000000 34.122605 0.061191 -1.222145 45.823656 -2.612225 -7.649620 8.390683 14.845302 1.530749 0.000000 0.000000 0.000000 
0.000544 0.899545 0.000472 0.183883 -2.485164 -10.041189 13.665052 0.111630 5.386067 -7.467985 1.512078 17.671991 7.252931 14.838872 -2.063770 0.000000 0.000000 0.000000 -7.033252 -0.316522 11.194237 2.468677 0.241495 19.469901 -6.908174 -15.552007 -8.592369 0.000000 0.000000 0.000000 8.913689 0.742557 -4.316566 -2.984448 1.340896 -15.505165 0.158931 3.866205 26.209689 6.566239 -1.435758 -28.498594 0.000000 0.000000 0.000000 -26.652308 -12.972668 5.501473 -48.073574 0.720521 -7.734446 -11.634861 -22.176295 3.175444 0.000000 0.000000 0.000000 34.054064 0.381095 -0.993187 45.721053 -2.857971 -7.722567 8.286291 15.520455 1.599462 0.000000 0.000000 0.000000 
0.000545 0.900264 0.001011 0.078269 -2.732541 -9.587339 13.547711 0.139834 4.232257 -7.720361 1.646689 18.752238 7.753482 15.921018 -1.804733 0.000000 0.000000 0.000000 -6.606410 -0.335402 10.870453 2.298767 0.290684 19.242697 -7.134407 -16.216010 -8.292819 0.000000 0.000000 0.000000 8.864243 0.841442 -5.239689 -2.954339 1.320563 -15.450447 0.338974 3.884721 26.442266 6.756384 -1.582115 -28.372427 0.000000 0.000000 0.000000 -26.766850 -12.893176 5.529199 -48.189228 0.778623 -7.800359 -11.356154 -21.791591 3.068837 0.000000 0.000000 0.000000 33.743132 0.463650 -0.980715 45.551500 -3.146253 -7.776661 8.612420 15.813564 1.672909 0.000000 0.000000 0.000000 
0.000593 0.900022 0.001506 0.344060 -3.131529 -9.800804 13.370473 0.176859 3.890124 -7.919655 1.789181 19.911660 7.859926 16.176326 -1.718249 0.000000 0.000000 0.000000 -6.770957 -0.295540 10.692980 2.216689 0.359177 19.913206 -7.091312 -15.914101 -8.659719 0.000000 0.000000 0.000000 9.281796 0.926161 -5.594779 -3.296978 1.427158 -15.231513 0.407541 3.971816 26.608819 6.582723 -1.591345 -27.846336 0.000000 0.000000 0.000000 -27.311548 -12.670095 5.491520 -47.512259 1.097807 -7.843789 -11.709298 -21.711750 3.127664 0.000000 0.000000 0.000000 33.513847 0.411260 -1.086955 45.319664 -3.434826 -7.825560 8.862378 16.308435 1.762586 0.000000 0.000000 0.000000 
0.000656 0.899124 0.002172 0.598176 -2.904018 -9.858821 13.458347 0.174411 3.561985 -8.216884 1.904419 20.692074 8.247174 16.983539 -1.268720 0.000000 0.000000 0.000000 -6.689779 -0.298069 10.290739 2.259846 0.375385 20.925831 -7.345839 -16.636976 -9.110920 0.000000 0.000000 0.000000 9.343458 1.002771 -6.185664 -3.269690 1.423841 -15.140090 0.492968 3.632549 26.933134 6.405493 -1.544356 -27.755654 0.000000 0.000000 0.000000 -26.994199 -12.007940 5.168130 -47.868198 1.285570 -8.030017 -11.843256 -21.703975 3.168303 0.000000 0.000000 0.000000 32.704661 0.006659 -1.419011 45.578832 -3.565869 -7.891604 9.086588 16.755544 1.850180 0.000000 0.000000 0.000000 
0.000678 0.897588 0.002650 0.548006 -2.674218 -9.898484 13.708341 0.170517 3.219835 -8.301674 1.946838 21.408364 8.448695 17.347958 -1.637491 0.000000 0.000000 0.000000 -6.604839 -0.306544 9.979809 2.255798 0.403329 21.984341 -7.439606 -16.927280 -9.480951 0.000000 0.000000 0.000000 9.430882 1.043242 -6.450028 -3.338964 1.456242 -14.733172 0.713585 3.339666 26.414030 6.367214 -1.651586 -26.865233 0.000000 0.000000 0.000000 -27.687358 -11.578188 4.940915 -47.271415 1.970104 -8.143720 -12.163173 -21.733427 3.233113 0.000000 0.000000 0.000000 33.056046 -0.187192 -1.673130 44.923130 -4.050229 -7.883375 9.099864 16.858763 1.858392 0.000000 0.000000 0.000000 
0.000754 0.895509 0.003115 0.536912 -2.840999 -10.114864 14.035073 0.183556 3.177853 -8.571416 2.079212 22.074892 8.679939 17.817083 -1.884145 0.000000 0.000000 0.000000 -6.827888 -0.267920 9.560933 2.616473 0.359924 23.512384 -7.489724 -16.961830 -9.977346 0.000000 0.000000 0.000000 9.703779 1.108719 -6.715968 -3.346605 1.460664 -14.173846 1.146349 3.489832 26.372368 6.612323 -1.851743 -26.321746 0.000000 0.000000 0.000000 -27.527439 -11.247494 4.704295 -47.557643 2.253067 -8.288808 -12.012422 -21.784072 3.216566 0.000000 0.000000 0.000000 33.102328 -0.294874 -1.737689 44.881217 -4.039489 -7.868147 8.793967 17.190739 1.861259 0.000000 0.000000 0.000000 
